M48
; ALL HOLES ARE NON-PLATED FOR HOME ETCH
METRIC,LZ
T01C1.00
T02C1.30
T03C3.20
%
G90
M71
T01
X31.238Y17.360
X56.763Y17.360
X31.238Y19.880
X56.763Y19.880
X31.238Y22.400
X56.763Y22.400
X31.238Y24.920
X56.763Y24.920
X31.238Y27.440
X56.763Y27.440
X31.238Y29.960
X56.763Y29.960
X31.238Y32.480
X56.763Y32.480
X31.238Y35.000
X56.763Y35.000
X31.238Y37.520
X56.763Y37.520
X31.238Y40.040
X56.763Y40.040
X31.238Y42.560
X56.763Y42.560
X31.238Y45.080
X56.763Y45.080
X31.238Y47.600
X56.763Y47.600
X31.238Y50.120
X56.763Y50.120
X31.238Y52.640
X56.763Y52.640
X73.190Y18.000
X73.190Y20.540
X73.190Y23.080
X73.190Y25.620
X73.190Y28.160
X73.190Y30.700
X73.190Y33.240
X80.810Y33.240
X80.810Y30.700
X80.810Y28.160
X80.810Y25.620
X80.810Y23.080
X80.810Y20.540
X80.810Y18.000
X105.000Y10.000
X105.000Y12.540
X105.000Y15.080
X105.000Y17.620
X105.000Y51.500
X105.000Y54.040
X105.000Y56.580
X105.000Y59.120
X67.000Y62.000
X67.000Y64.540
X67.000Y67.080
X7.000Y67.000
X9.540Y67.000
X12.080Y67.000
X14.620Y67.000
X17.160Y67.000
X19.700Y67.000
X61.380Y23.080
X69.000Y23.080
X61.380Y30.700
X69.000Y30.700
X87.000Y38.320
X94.620Y38.320
X87.000Y45.940
X94.620Y45.940
X24.000Y61.500
X31.620Y61.500
X59.500Y59.000
X67.120Y59.000
X84.000Y18.000
X84.000Y21.000
X100.000Y8.000
X100.000Y12.000
X100.000Y50.000
X100.000Y54.000
T02
X7.000Y60.000
X20.000Y60.000
X7.000Y44.000
X20.000Y44.000
T03
X32.350Y9.760
X32.350Y56.560
X55.650Y9.760
X55.650Y56.560
X3.500Y3.500
X106.500Y3.500
X3.500Y66.500
X106.500Y66.500
M30
