G04 BOTTOM COPPER - SINGLE SIDED HOME ETCH*
%FSLAX46Y46*%
%MOMM*%
%IPPOS*%
%LPD*%
G01*
%ADD10C,2.000*%
%ADD11R,2.000X2.000*%
%ADD12C,3.400*%
%ADD13C,0.800*%
%ADD14C,1.200*%
%ADD15C,2.500*%
%ADD16C,3.000*%
%ADD17C,3.800*%
%ADD18C,4.200*%
%LPD*%
G36*
X0000800000Y0000800000D02*
X0109200000Y0000800000D01*
X0109200000Y0069200000D01*
X0000800000Y0069200000D01*
X0000800000Y0000800000D01*
G37*
%LPC*%
D18*
X0031237500Y0017360000D03*
D18*
X0056762500Y0017360000D03*
D18*
X0031237500Y0022400000D03*
D18*
X0056762500Y0022400000D03*
D18*
X0031237500Y0024920000D03*
D18*
X0056762500Y0024920000D03*
D18*
X0031237500Y0027440000D03*
D18*
X0056762500Y0027440000D03*
D18*
X0031237500Y0029960000D03*
D18*
X0056762500Y0029960000D03*
D18*
X0031237500Y0032480000D03*
D18*
X0056762500Y0032480000D03*
D18*
X0031237500Y0035000000D03*
D18*
X0056762500Y0035000000D03*
D18*
X0031237500Y0037520000D03*
D18*
X0056762500Y0037520000D03*
D18*
X0031237500Y0040040000D03*
D18*
X0056762500Y0040040000D03*
D18*
X0031237500Y0042560000D03*
D18*
X0056762500Y0042560000D03*
D18*
X0031237500Y0045080000D03*
D18*
X0056762500Y0045080000D03*
D18*
X0031237500Y0047600000D03*
D18*
X0056762500Y0047600000D03*
D18*
X0031237500Y0050120000D03*
D18*
X0056762500Y0050120000D03*
D18*
X0031237500Y0052640000D03*
D18*
X0056762500Y0052640000D03*
D18*
X0073190000Y0020540000D03*
D18*
X0073190000Y0023080000D03*
D18*
X0073190000Y0028160000D03*
D18*
X0073190000Y0030700000D03*
D18*
X0080810000Y0033240000D03*
D18*
X0080810000Y0030700000D03*
D18*
X0080810000Y0025620000D03*
D18*
X0080810000Y0023080000D03*
D18*
X0080810000Y0018000000D03*
D17*
X0020000000Y0060000000D03*
D17*
X0020000000Y0044000000D03*
D18*
X0105000000Y0010000000D03*
D18*
X0105000000Y0015080000D03*
D18*
X0105000000Y0017620000D03*
D18*
X0105000000Y0051500000D03*
D18*
X0105000000Y0056580000D03*
D18*
X0105000000Y0059120000D03*
D18*
X0067000000Y0064540000D03*
D18*
X0067000000Y0067080000D03*
D18*
X0007000000Y0067000000D03*
D18*
X0009540000Y0067000000D03*
D18*
X0017160000Y0067000000D03*
D18*
X0019700000Y0067000000D03*
D18*
X0061380000Y0023080000D03*
D18*
X0069000000Y0023080000D03*
D18*
X0061380000Y0030700000D03*
D18*
X0069000000Y0030700000D03*
D18*
X0087000000Y0038320000D03*
D18*
X0094620000Y0038320000D03*
D18*
X0087000000Y0045940000D03*
D18*
X0094620000Y0045940000D03*
D18*
X0024000000Y0061500000D03*
D18*
X0031620000Y0061500000D03*
D18*
X0059500000Y0059000000D03*
D18*
X0067120000Y0059000000D03*
D18*
X0084000000Y0018000000D03*
D18*
X0100000000Y0008000000D03*
D18*
X0100000000Y0050000000D03*
D18*
X0032350000Y0009760000D03*
D18*
X0032350000Y0056560000D03*
D18*
X0055650000Y0009760000D03*
D18*
X0055650000Y0056560000D03*
D18*
X0003500000Y0003500000D03*
D18*
X0106500000Y0003500000D03*
D18*
X0003500000Y0066500000D03*
D18*
X0106500000Y0066500000D03*
D18*
X0007000000Y0067000000D02*
X0007000000Y0062000000D01*
X0020000000Y0062000000D01*
X0020000000Y0060000000D01*
D18*
X0009540000Y0067000000D02*
X0009540000Y0062000000D01*
D18*
X0020000000Y0044000000D02*
X0020000000Y0007000000D01*
X0031237500Y0007000000D01*
X0031237500Y0017360000D01*
D18*
X0031237500Y0007000000D02*
X0098500000Y0007000000D01*
X0098500000Y0010000000D01*
X0105000000Y0010000000D01*
D18*
X0080810000Y0018000000D02*
X0084000000Y0018000000D01*
X0084000000Y0007000000D01*
D18*
X0098500000Y0007000000D02*
X0100000000Y0008000000D01*
D18*
X0098500000Y0007000000D02*
X0098500000Y0048000000D01*
X0100000000Y0050000000D01*
X0105000000Y0051500000D01*
D17*
X0073190000Y0023080000D02*
X0069000000Y0023080000D01*
D17*
X0073190000Y0030700000D02*
X0069000000Y0030700000D01*
D17*
X0080810000Y0033240000D02*
X0082500000Y0033240000D01*
X0082500000Y0038320000D01*
X0087000000Y0038320000D01*
D17*
X0059500000Y0059000000D02*
X0059500000Y0064540000D01*
X0067000000Y0064540000D01*
D17*
X0067120000Y0059000000D02*
X0070000000Y0059000000D01*
X0070000000Y0067080000D01*
X0067000000Y0067080000D01*
D17*
X0031237500Y0035000000D02*
X0024000000Y0035000000D01*
X0024000000Y0061500000D01*
D17*
X0031620000Y0061500000D02*
X0033500000Y0061500000D01*
X0033500000Y0065000000D01*
X0017160000Y0065000000D01*
X0017160000Y0067000000D01*
D17*
X0080810000Y0018000000D02*
X0084000000Y0018000000D01*
%LPD*%
D11*
X0031237500Y0017360000D03*
D11*
X0056762500Y0017360000D03*
D10*
X0031237500Y0019880000D03*
D10*
X0056762500Y0019880000D03*
D10*
X0031237500Y0022400000D03*
D10*
X0056762500Y0022400000D03*
D10*
X0031237500Y0024920000D03*
D10*
X0056762500Y0024920000D03*
D10*
X0031237500Y0027440000D03*
D10*
X0056762500Y0027440000D03*
D10*
X0031237500Y0029960000D03*
D10*
X0056762500Y0029960000D03*
D10*
X0031237500Y0032480000D03*
D10*
X0056762500Y0032480000D03*
D10*
X0031237500Y0035000000D03*
D10*
X0056762500Y0035000000D03*
D10*
X0031237500Y0037520000D03*
D10*
X0056762500Y0037520000D03*
D10*
X0031237500Y0040040000D03*
D10*
X0056762500Y0040040000D03*
D10*
X0031237500Y0042560000D03*
D10*
X0056762500Y0042560000D03*
D10*
X0031237500Y0045080000D03*
D10*
X0056762500Y0045080000D03*
D10*
X0031237500Y0047600000D03*
D10*
X0056762500Y0047600000D03*
D10*
X0031237500Y0050120000D03*
D10*
X0056762500Y0050120000D03*
D10*
X0031237500Y0052640000D03*
D10*
X0056762500Y0052640000D03*
D11*
X0073190000Y0018000000D03*
D10*
X0073190000Y0020540000D03*
D10*
X0073190000Y0023080000D03*
D10*
X0073190000Y0025620000D03*
D10*
X0073190000Y0028160000D03*
D10*
X0073190000Y0030700000D03*
D10*
X0073190000Y0033240000D03*
D10*
X0080810000Y0033240000D03*
D10*
X0080810000Y0030700000D03*
D10*
X0080810000Y0028160000D03*
D10*
X0080810000Y0025620000D03*
D10*
X0080810000Y0023080000D03*
D10*
X0080810000Y0020540000D03*
D10*
X0080810000Y0018000000D03*
D12*
X0007000000Y0060000000D03*
D12*
X0020000000Y0060000000D03*
D12*
X0007000000Y0044000000D03*
D12*
X0020000000Y0044000000D03*
D11*
X0105000000Y0010000000D03*
D10*
X0105000000Y0012540000D03*
D10*
X0105000000Y0015080000D03*
D10*
X0105000000Y0017620000D03*
D11*
X0105000000Y0051500000D03*
D10*
X0105000000Y0054040000D03*
D10*
X0105000000Y0056580000D03*
D10*
X0105000000Y0059120000D03*
D11*
X0067000000Y0062000000D03*
D10*
X0067000000Y0064540000D03*
D10*
X0067000000Y0067080000D03*
D11*
X0007000000Y0067000000D03*
D10*
X0009540000Y0067000000D03*
D10*
X0012080000Y0067000000D03*
D10*
X0014620000Y0067000000D03*
D10*
X0017160000Y0067000000D03*
D10*
X0019700000Y0067000000D03*
D10*
X0061380000Y0023080000D03*
D10*
X0069000000Y0023080000D03*
D10*
X0061380000Y0030700000D03*
D10*
X0069000000Y0030700000D03*
D10*
X0087000000Y0038320000D03*
D10*
X0094620000Y0038320000D03*
D10*
X0087000000Y0045940000D03*
D10*
X0094620000Y0045940000D03*
D10*
X0024000000Y0061500000D03*
D10*
X0031620000Y0061500000D03*
D10*
X0059500000Y0059000000D03*
D10*
X0067120000Y0059000000D03*
D10*
X0084000000Y0018000000D03*
D10*
X0084000000Y0021000000D03*
D10*
X0100000000Y0008000000D03*
D10*
X0100000000Y0012000000D03*
D10*
X0100000000Y0050000000D03*
D10*
X0100000000Y0054000000D03*
D16*
X0007000000Y0067000000D02*
X0007000000Y0062000000D01*
X0020000000Y0062000000D01*
X0020000000Y0060000000D01*
D16*
X0009540000Y0067000000D02*
X0009540000Y0062000000D01*
D16*
X0020000000Y0044000000D02*
X0020000000Y0007000000D01*
X0031237500Y0007000000D01*
X0031237500Y0017360000D01*
D16*
X0031237500Y0007000000D02*
X0098500000Y0007000000D01*
X0098500000Y0010000000D01*
X0105000000Y0010000000D01*
D16*
X0080810000Y0018000000D02*
X0084000000Y0018000000D01*
X0084000000Y0007000000D01*
D16*
X0098500000Y0007000000D02*
X0100000000Y0008000000D01*
D16*
X0098500000Y0007000000D02*
X0098500000Y0048000000D01*
X0100000000Y0050000000D01*
X0105000000Y0051500000D01*
D13*
X0073190000Y0023080000D02*
X0069000000Y0023080000D01*
D13*
X0073190000Y0030700000D02*
X0069000000Y0030700000D01*
D13*
X0080810000Y0033240000D02*
X0082500000Y0033240000D01*
X0082500000Y0038320000D01*
X0087000000Y0038320000D01*
D13*
X0059500000Y0059000000D02*
X0059500000Y0064540000D01*
X0067000000Y0064540000D01*
D13*
X0067120000Y0059000000D02*
X0070000000Y0059000000D01*
X0070000000Y0067080000D01*
X0067000000Y0067080000D01*
D13*
X0031237500Y0035000000D02*
X0024000000Y0035000000D01*
X0024000000Y0061500000D01*
D13*
X0031620000Y0061500000D02*
X0033500000Y0061500000D01*
X0033500000Y0065000000D01*
X0017160000Y0065000000D01*
X0017160000Y0067000000D01*
D14*
X0080810000Y0018000000D02*
X0084000000Y0018000000D01*
M02*
