M48
; POV ROTOR CONTROLLER REV A - PLATED
METRIC,LZ
T01C0.40
T02C1.00
T03C1.10
%
G90
M71
T01
X38.000Y48.945
X38.000Y18.000
T02
X82.000Y8.000
X82.000Y13.000
X82.000Y50.000
X82.000Y54.000
T03
X10.238Y16.185
X35.763Y16.185
X10.238Y18.705
X35.763Y18.705
X10.238Y21.225
X35.763Y21.225
X10.238Y23.745
X35.763Y23.745
X10.238Y26.265
X35.763Y26.265
X10.238Y28.785
X35.763Y28.785
X10.238Y31.305
X35.763Y31.305
X10.238Y33.825
X35.763Y33.825
X10.238Y36.345
X35.763Y36.345
X10.238Y38.865
X35.763Y38.865
X10.238Y41.385
X35.763Y41.385
X10.238Y43.905
X35.763Y43.905
X10.238Y46.425
X35.763Y46.425
X10.238Y48.945
X35.763Y48.945
X10.238Y51.465
X35.763Y51.465
X48.190Y22.000
X48.190Y24.540
X48.190Y27.080
X48.190Y29.620
X48.190Y32.160
X48.190Y34.700
X48.190Y37.240
X55.810Y37.240
X55.810Y34.700
X55.810Y32.160
X55.810Y29.620
X55.810Y27.080
X55.810Y24.540
X55.810Y22.000
X84.000Y18.000
X84.000Y20.540
X84.000Y23.080
X84.000Y25.620
X84.000Y38.000
X84.000Y40.540
X84.000Y43.080
X84.000Y45.620
X4.000Y60.000
X6.540Y60.000
X9.080Y60.000
X11.620Y60.000
X14.160Y60.000
X16.700Y60.000
X44.000Y4.500
X46.540Y4.500
X49.080Y4.500
X69.000Y14.000
X76.620Y14.000
X69.000Y18.000
X76.620Y18.000
X69.000Y37.000
X76.620Y37.000
X69.000Y30.000
X76.620Y30.000
X24.000Y55.000
X31.620Y55.000
X36.000Y10.000
X43.620Y10.000
X58.500Y24.000
X61.040Y24.000
M30
