G04 TOP SILKSCREEN*
%FSLAX46Y46*%
%MOMM*%
%IPPOS*%
%LPD*%
G01*
%ADD10C,0.200*%
%ADD11C,0.450*%
%ADD12C,0.600*%
D10*
X0008750000Y0006200000D02*
X0037250000Y0006200000D01*
X0037250000Y0057800000D01*
X0008750000Y0057800000D01*
X0008750000Y0006200000D01*
D10*
X0047000000Y0020700000D02*
X0057000000Y0020700000D01*
X0057000000Y0038600000D01*
X0047000000Y0038600000D01*
X0047000000Y0020700000D01*
D12*
X0084000000Y0018000000D03*
D12*
X0084000000Y0038000000D03*
D12*
X0004000000Y0060000000D03*
D12*
X0044000000Y0004500000D03*
D11*
X0040000000Y0062500000D03*
D11*
X0041520000Y0062500000D03*
D11*
X0040000000Y0062120000D03*
D11*
X0040380000Y0062120000D03*
D11*
X0041520000Y0062120000D03*
D11*
X0040000000Y0061740000D03*
D11*
X0040380000Y0061740000D03*
D11*
X0041520000Y0061740000D03*
D11*
X0040000000Y0061360000D03*
D11*
X0040760000Y0061360000D03*
D11*
X0041520000Y0061360000D03*
D11*
X0040000000Y0060980000D03*
D11*
X0041140000Y0060980000D03*
D11*
X0041520000Y0060980000D03*
D11*
X0040000000Y0060600000D03*
D11*
X0041140000Y0060600000D03*
D11*
X0041520000Y0060600000D03*
D11*
X0040000000Y0060220000D03*
D11*
X0041520000Y0060220000D03*
D11*
X0042660000Y0062500000D03*
D11*
X0043040000Y0062500000D03*
D11*
X0043420000Y0062500000D03*
D11*
X0042280000Y0062120000D03*
D11*
X0043800000Y0062120000D03*
D11*
X0042280000Y0061740000D03*
D11*
X0043800000Y0061740000D03*
D11*
X0042280000Y0061360000D03*
D11*
X0043800000Y0061360000D03*
D11*
X0042280000Y0060980000D03*
D11*
X0043800000Y0060980000D03*
D11*
X0042280000Y0060600000D03*
D11*
X0043800000Y0060600000D03*
D11*
X0042660000Y0060220000D03*
D11*
X0043040000Y0060220000D03*
D11*
X0043420000Y0060220000D03*
D11*
X0047220000Y0062500000D03*
D11*
X0047600000Y0062500000D03*
D11*
X0047980000Y0062500000D03*
D11*
X0048360000Y0062500000D03*
D11*
X0046840000Y0062120000D03*
D11*
X0046840000Y0061740000D03*
D11*
X0047220000Y0061360000D03*
D11*
X0047600000Y0061360000D03*
D11*
X0047980000Y0061360000D03*
D11*
X0048360000Y0060980000D03*
D11*
X0048360000Y0060600000D03*
D11*
X0046840000Y0060220000D03*
D11*
X0047220000Y0060220000D03*
D11*
X0047600000Y0060220000D03*
D11*
X0047980000Y0060220000D03*
D11*
X0049120000Y0062500000D03*
D11*
X0049500000Y0062500000D03*
D11*
X0049880000Y0062500000D03*
D11*
X0050260000Y0062500000D03*
D11*
X0049120000Y0062120000D03*
D11*
X0050640000Y0062120000D03*
D11*
X0049120000Y0061740000D03*
D11*
X0050640000Y0061740000D03*
D11*
X0049120000Y0061360000D03*
D11*
X0049500000Y0061360000D03*
D11*
X0049880000Y0061360000D03*
D11*
X0050260000Y0061360000D03*
D11*
X0049120000Y0060980000D03*
D11*
X0049120000Y0060600000D03*
D11*
X0049120000Y0060220000D03*
D11*
X0051400000Y0062500000D03*
D11*
X0051780000Y0062500000D03*
D11*
X0052160000Y0062500000D03*
D11*
X0052540000Y0062500000D03*
D11*
X0052920000Y0062500000D03*
D11*
X0052160000Y0062120000D03*
D11*
X0052160000Y0061740000D03*
D11*
X0052160000Y0061360000D03*
D11*
X0052160000Y0060980000D03*
D11*
X0052160000Y0060600000D03*
D11*
X0051400000Y0060220000D03*
D11*
X0051780000Y0060220000D03*
D11*
X0052160000Y0060220000D03*
D11*
X0052540000Y0060220000D03*
D11*
X0052920000Y0060220000D03*
D11*
X0053680000Y0062500000D03*
D11*
X0055200000Y0062500000D03*
D11*
X0053680000Y0062120000D03*
D11*
X0054060000Y0062120000D03*
D11*
X0055200000Y0062120000D03*
D11*
X0053680000Y0061740000D03*
D11*
X0054060000Y0061740000D03*
D11*
X0055200000Y0061740000D03*
D11*
X0053680000Y0061360000D03*
D11*
X0054440000Y0061360000D03*
D11*
X0055200000Y0061360000D03*
D11*
X0053680000Y0060980000D03*
D11*
X0054820000Y0060980000D03*
D11*
X0055200000Y0060980000D03*
D11*
X0053680000Y0060600000D03*
D11*
X0054820000Y0060600000D03*
D11*
X0055200000Y0060600000D03*
D11*
X0053680000Y0060220000D03*
D11*
X0055200000Y0060220000D03*
D11*
X0016000000Y0059500000D03*
D11*
X0016280000Y0059500000D03*
D11*
X0016560000Y0059500000D03*
D11*
X0016840000Y0059500000D03*
D11*
X0017120000Y0059500000D03*
D11*
X0016000000Y0059220000D03*
D11*
X0016000000Y0058940000D03*
D11*
X0016000000Y0058660000D03*
D11*
X0016280000Y0058660000D03*
D11*
X0016560000Y0058660000D03*
D11*
X0016840000Y0058660000D03*
D11*
X0016000000Y0058380000D03*
D11*
X0016000000Y0058100000D03*
D11*
X0016000000Y0057820000D03*
D11*
X0016280000Y0057820000D03*
D11*
X0016560000Y0057820000D03*
D11*
X0016840000Y0057820000D03*
D11*
X0017120000Y0057820000D03*
D11*
X0017960000Y0059500000D03*
D11*
X0018240000Y0059500000D03*
D11*
X0018520000Y0059500000D03*
D11*
X0018800000Y0059500000D03*
D11*
X0017680000Y0059220000D03*
D11*
X0017680000Y0058940000D03*
D11*
X0017960000Y0058660000D03*
D11*
X0018240000Y0058660000D03*
D11*
X0018520000Y0058660000D03*
D11*
X0018800000Y0058380000D03*
D11*
X0018800000Y0058100000D03*
D11*
X0017680000Y0057820000D03*
D11*
X0017960000Y0057820000D03*
D11*
X0018240000Y0057820000D03*
D11*
X0018520000Y0057820000D03*
D11*
X0019360000Y0059500000D03*
D11*
X0019640000Y0059500000D03*
D11*
X0019920000Y0059500000D03*
D11*
X0020200000Y0059500000D03*
D11*
X0019360000Y0059220000D03*
D11*
X0020480000Y0059220000D03*
D11*
X0019360000Y0058940000D03*
D11*
X0020480000Y0058940000D03*
D11*
X0019360000Y0058660000D03*
D11*
X0019640000Y0058660000D03*
D11*
X0019920000Y0058660000D03*
D11*
X0020200000Y0058660000D03*
D11*
X0019360000Y0058380000D03*
D11*
X0019360000Y0058100000D03*
D11*
X0019360000Y0057820000D03*
D11*
X0021040000Y0059500000D03*
D11*
X0021320000Y0059500000D03*
D11*
X0021600000Y0059500000D03*
D11*
X0021880000Y0059500000D03*
D11*
X0022160000Y0059220000D03*
D11*
X0022160000Y0058940000D03*
D11*
X0021320000Y0058660000D03*
D11*
X0021600000Y0058660000D03*
D11*
X0021880000Y0058660000D03*
D11*
X0022160000Y0058380000D03*
D11*
X0022160000Y0058100000D03*
D11*
X0021040000Y0057820000D03*
D11*
X0021320000Y0057820000D03*
D11*
X0021600000Y0057820000D03*
D11*
X0021880000Y0057820000D03*
D11*
X0023000000Y0059500000D03*
D11*
X0023280000Y0059500000D03*
D11*
X0023560000Y0059500000D03*
D11*
X0022720000Y0059220000D03*
D11*
X0023840000Y0059220000D03*
D11*
X0023840000Y0058940000D03*
D11*
X0023560000Y0058660000D03*
D11*
X0023280000Y0058380000D03*
D11*
X0023000000Y0058100000D03*
D11*
X0022720000Y0057820000D03*
D11*
X0023000000Y0057820000D03*
D11*
X0023280000Y0057820000D03*
D11*
X0023560000Y0057820000D03*
D11*
X0023840000Y0057820000D03*
D11*
X0047280000Y0040000000D03*
D11*
X0047560000Y0040000000D03*
D11*
X0047840000Y0040000000D03*
D11*
X0047000000Y0039720000D03*
D11*
X0048120000Y0039720000D03*
D11*
X0047000000Y0039440000D03*
D11*
X0048120000Y0039440000D03*
D11*
X0047000000Y0039160000D03*
D11*
X0047280000Y0039160000D03*
D11*
X0047560000Y0039160000D03*
D11*
X0047840000Y0039160000D03*
D11*
X0048120000Y0039160000D03*
D11*
X0047000000Y0038880000D03*
D11*
X0048120000Y0038880000D03*
D11*
X0047000000Y0038600000D03*
D11*
X0048120000Y0038600000D03*
D11*
X0047000000Y0038320000D03*
D11*
X0048120000Y0038320000D03*
D11*
X0048680000Y0040000000D03*
D11*
X0049800000Y0040000000D03*
D11*
X0048680000Y0039720000D03*
D11*
X0049800000Y0039720000D03*
D11*
X0048680000Y0039440000D03*
D11*
X0049800000Y0039440000D03*
D11*
X0048680000Y0039160000D03*
D11*
X0048960000Y0039160000D03*
D11*
X0049240000Y0039160000D03*
D11*
X0049520000Y0039160000D03*
D11*
X0049800000Y0039160000D03*
D11*
X0048680000Y0038880000D03*
D11*
X0049800000Y0038880000D03*
D11*
X0048680000Y0038600000D03*
D11*
X0049800000Y0038600000D03*
D11*
X0048680000Y0038320000D03*
D11*
X0049800000Y0038320000D03*
D11*
X0050640000Y0040000000D03*
D11*
X0050920000Y0040000000D03*
D11*
X0051200000Y0040000000D03*
D11*
X0051480000Y0040000000D03*
D11*
X0050360000Y0039720000D03*
D11*
X0050360000Y0039440000D03*
D11*
X0050360000Y0039160000D03*
D11*
X0050360000Y0038880000D03*
D11*
X0050360000Y0038600000D03*
D11*
X0050640000Y0038320000D03*
D11*
X0050920000Y0038320000D03*
D11*
X0051200000Y0038320000D03*
D11*
X0051480000Y0038320000D03*
D11*
X0052040000Y0040000000D03*
D11*
X0052320000Y0040000000D03*
D11*
X0052600000Y0040000000D03*
D11*
X0052880000Y0040000000D03*
D11*
X0053160000Y0040000000D03*
D11*
X0052600000Y0039720000D03*
D11*
X0052600000Y0039440000D03*
D11*
X0052600000Y0039160000D03*
D11*
X0052600000Y0038880000D03*
D11*
X0052600000Y0038600000D03*
D11*
X0052600000Y0038320000D03*
D11*
X0080280000Y0017000000D03*
D11*
X0080560000Y0017000000D03*
D11*
X0080840000Y0017000000D03*
D11*
X0080000000Y0016720000D03*
D11*
X0081120000Y0016720000D03*
D11*
X0080000000Y0016440000D03*
D11*
X0081120000Y0016440000D03*
D11*
X0080000000Y0016160000D03*
D11*
X0080280000Y0016160000D03*
D11*
X0080560000Y0016160000D03*
D11*
X0080840000Y0016160000D03*
D11*
X0081120000Y0016160000D03*
D11*
X0080000000Y0015880000D03*
D11*
X0081120000Y0015880000D03*
D11*
X0080000000Y0015600000D03*
D11*
X0081120000Y0015600000D03*
D11*
X0080000000Y0015320000D03*
D11*
X0081120000Y0015320000D03*
D11*
X0080000000Y0037000000D03*
D11*
X0080280000Y0037000000D03*
D11*
X0080560000Y0037000000D03*
D11*
X0080840000Y0037000000D03*
D11*
X0080000000Y0036720000D03*
D11*
X0081120000Y0036720000D03*
D11*
X0080000000Y0036440000D03*
D11*
X0081120000Y0036440000D03*
D11*
X0080000000Y0036160000D03*
D11*
X0080280000Y0036160000D03*
D11*
X0080560000Y0036160000D03*
D11*
X0080840000Y0036160000D03*
D11*
X0080000000Y0035880000D03*
D11*
X0081120000Y0035880000D03*
D11*
X0080000000Y0035600000D03*
D11*
X0081120000Y0035600000D03*
D11*
X0080000000Y0035320000D03*
D11*
X0080280000Y0035320000D03*
D11*
X0080560000Y0035320000D03*
D11*
X0080840000Y0035320000D03*
D11*
X0019000000Y0062200000D03*
D11*
X0019250000Y0062200000D03*
D11*
X0019500000Y0062200000D03*
D11*
X0019750000Y0062200000D03*
D11*
X0019000000Y0061950000D03*
D11*
X0020000000Y0061950000D03*
D11*
X0019000000Y0061700000D03*
D11*
X0020000000Y0061700000D03*
D11*
X0019000000Y0061450000D03*
D11*
X0019250000Y0061450000D03*
D11*
X0019500000Y0061450000D03*
D11*
X0019750000Y0061450000D03*
D11*
X0019000000Y0061200000D03*
D11*
X0019500000Y0061200000D03*
D11*
X0019000000Y0060950000D03*
D11*
X0019750000Y0060950000D03*
D11*
X0019000000Y0060700000D03*
D11*
X0020000000Y0060700000D03*
D11*
X0020500000Y0062200000D03*
D11*
X0020750000Y0062200000D03*
D11*
X0021000000Y0062200000D03*
D11*
X0021250000Y0062200000D03*
D11*
X0021500000Y0062200000D03*
D11*
X0021000000Y0061950000D03*
D11*
X0021000000Y0061700000D03*
D11*
X0021000000Y0061450000D03*
D11*
X0021000000Y0061200000D03*
D11*
X0021000000Y0060950000D03*
D11*
X0020500000Y0060700000D03*
D11*
X0020750000Y0060700000D03*
D11*
X0021000000Y0060700000D03*
D11*
X0021250000Y0060700000D03*
D11*
X0021500000Y0060700000D03*
D11*
X0022000000Y0062200000D03*
D11*
X0023000000Y0062200000D03*
D11*
X0022000000Y0061950000D03*
D11*
X0022250000Y0061950000D03*
D11*
X0023000000Y0061950000D03*
D11*
X0022000000Y0061700000D03*
D11*
X0022250000Y0061700000D03*
D11*
X0023000000Y0061700000D03*
D11*
X0022000000Y0061450000D03*
D11*
X0022500000Y0061450000D03*
D11*
X0023000000Y0061450000D03*
D11*
X0022000000Y0061200000D03*
D11*
X0022750000Y0061200000D03*
D11*
X0023000000Y0061200000D03*
D11*
X0022000000Y0060950000D03*
D11*
X0022750000Y0060950000D03*
D11*
X0023000000Y0060950000D03*
D11*
X0022000000Y0060700000D03*
D11*
X0023000000Y0060700000D03*
D11*
X0023750000Y0062200000D03*
D11*
X0024000000Y0062200000D03*
D11*
X0024250000Y0062200000D03*
D11*
X0024500000Y0062200000D03*
D11*
X0023500000Y0061950000D03*
D11*
X0023500000Y0061700000D03*
D11*
X0023500000Y0061450000D03*
D11*
X0024000000Y0061450000D03*
D11*
X0024250000Y0061450000D03*
D11*
X0024500000Y0061450000D03*
D11*
X0023500000Y0061200000D03*
D11*
X0024500000Y0061200000D03*
D11*
X0023500000Y0060950000D03*
D11*
X0024500000Y0060950000D03*
D11*
X0023750000Y0060700000D03*
D11*
X0024000000Y0060700000D03*
D11*
X0024250000Y0060700000D03*
D11*
X0024500000Y0060700000D03*
D11*
X0053000000Y0005200000D03*
D11*
X0054000000Y0005200000D03*
D11*
X0053000000Y0004950000D03*
D11*
X0054000000Y0004950000D03*
D11*
X0053000000Y0004700000D03*
D11*
X0054000000Y0004700000D03*
D11*
X0053000000Y0004450000D03*
D11*
X0053250000Y0004450000D03*
D11*
X0053500000Y0004450000D03*
D11*
X0053750000Y0004450000D03*
D11*
X0054000000Y0004450000D03*
D11*
X0053000000Y0004200000D03*
D11*
X0054000000Y0004200000D03*
D11*
X0053000000Y0003950000D03*
D11*
X0054000000Y0003950000D03*
D11*
X0053000000Y0003700000D03*
D11*
X0054000000Y0003700000D03*
D11*
X0054750000Y0005200000D03*
D11*
X0055000000Y0005200000D03*
D11*
X0055250000Y0005200000D03*
D11*
X0054500000Y0004950000D03*
D11*
X0055500000Y0004950000D03*
D11*
X0054500000Y0004700000D03*
D11*
X0055500000Y0004700000D03*
D11*
X0054500000Y0004450000D03*
D11*
X0054750000Y0004450000D03*
D11*
X0055000000Y0004450000D03*
D11*
X0055250000Y0004450000D03*
D11*
X0055500000Y0004450000D03*
D11*
X0054500000Y0004200000D03*
D11*
X0055500000Y0004200000D03*
D11*
X0054500000Y0003950000D03*
D11*
X0055500000Y0003950000D03*
D11*
X0054500000Y0003700000D03*
D11*
X0055500000Y0003700000D03*
D11*
X0056000000Y0005200000D03*
D11*
X0056000000Y0004950000D03*
D11*
X0056000000Y0004700000D03*
D11*
X0056000000Y0004450000D03*
D11*
X0056000000Y0004200000D03*
D11*
X0056000000Y0003950000D03*
D11*
X0056000000Y0003700000D03*
D11*
X0056250000Y0003700000D03*
D11*
X0056500000Y0003700000D03*
D11*
X0056750000Y0003700000D03*
D11*
X0057000000Y0003700000D03*
D11*
X0057500000Y0005200000D03*
D11*
X0057500000Y0004950000D03*
D11*
X0057500000Y0004700000D03*
D11*
X0057500000Y0004450000D03*
D11*
X0057500000Y0004200000D03*
D11*
X0057500000Y0003950000D03*
D11*
X0057500000Y0003700000D03*
D11*
X0057750000Y0003700000D03*
D11*
X0058000000Y0003700000D03*
D11*
X0058250000Y0003700000D03*
D11*
X0058500000Y0003700000D03*
M02*
