G04 BOTTOM SOLDER MASK*
%FSLAX46Y46*%
%MOMM*%
%IPPOS*%
%LPD*%
G01*
%ADD10C,2.500*%
%ADD11R,2.500X2.500*%
%ADD12C,4.600*%
D11*
X0010237500Y0016185000D03*
D11*
X0035762500Y0016185000D03*
D10*
X0010237500Y0018705000D03*
D10*
X0035762500Y0018705000D03*
D10*
X0010237500Y0021225000D03*
D10*
X0035762500Y0021225000D03*
D10*
X0010237500Y0023745000D03*
D10*
X0035762500Y0023745000D03*
D10*
X0010237500Y0026265000D03*
D10*
X0035762500Y0026265000D03*
D10*
X0010237500Y0028785000D03*
D10*
X0035762500Y0028785000D03*
D10*
X0010237500Y0031305000D03*
D10*
X0035762500Y0031305000D03*
D10*
X0010237500Y0033825000D03*
D10*
X0035762500Y0033825000D03*
D10*
X0010237500Y0036345000D03*
D10*
X0035762500Y0036345000D03*
D10*
X0010237500Y0038865000D03*
D10*
X0035762500Y0038865000D03*
D10*
X0010237500Y0041385000D03*
D10*
X0035762500Y0041385000D03*
D10*
X0010237500Y0043905000D03*
D10*
X0035762500Y0043905000D03*
D10*
X0010237500Y0046425000D03*
D10*
X0035762500Y0046425000D03*
D10*
X0010237500Y0048945000D03*
D10*
X0035762500Y0048945000D03*
D10*
X0010237500Y0051465000D03*
D10*
X0035762500Y0051465000D03*
D11*
X0048190000Y0022000000D03*
D10*
X0048190000Y0024540000D03*
D10*
X0048190000Y0027080000D03*
D10*
X0048190000Y0029620000D03*
D10*
X0048190000Y0032160000D03*
D10*
X0048190000Y0034700000D03*
D10*
X0048190000Y0037240000D03*
D10*
X0055810000Y0037240000D03*
D10*
X0055810000Y0034700000D03*
D10*
X0055810000Y0032160000D03*
D10*
X0055810000Y0029620000D03*
D10*
X0055810000Y0027080000D03*
D10*
X0055810000Y0024540000D03*
D10*
X0055810000Y0022000000D03*
D11*
X0084000000Y0018000000D03*
D10*
X0084000000Y0020540000D03*
D10*
X0084000000Y0023080000D03*
D10*
X0084000000Y0025620000D03*
D11*
X0084000000Y0038000000D03*
D10*
X0084000000Y0040540000D03*
D10*
X0084000000Y0043080000D03*
D10*
X0084000000Y0045620000D03*
D11*
X0004000000Y0060000000D03*
D10*
X0006540000Y0060000000D03*
D10*
X0009080000Y0060000000D03*
D10*
X0011620000Y0060000000D03*
D10*
X0014160000Y0060000000D03*
D10*
X0016700000Y0060000000D03*
D11*
X0044000000Y0004500000D03*
D10*
X0046540000Y0004500000D03*
D10*
X0049080000Y0004500000D03*
D10*
X0069000000Y0014000000D03*
D10*
X0076620000Y0014000000D03*
D10*
X0069000000Y0018000000D03*
D10*
X0076620000Y0018000000D03*
D10*
X0069000000Y0037000000D03*
D10*
X0076620000Y0037000000D03*
D10*
X0069000000Y0030000000D03*
D10*
X0076620000Y0030000000D03*
D10*
X0024000000Y0055000000D03*
D10*
X0031620000Y0055000000D03*
D10*
X0036000000Y0010000000D03*
D10*
X0043620000Y0010000000D03*
D10*
X0058500000Y0024000000D03*
D10*
X0061040000Y0024000000D03*
D10*
X0082000000Y0008000000D03*
D10*
X0082000000Y0013000000D03*
D10*
X0082000000Y0050000000D03*
D10*
X0082000000Y0054000000D03*
D10*
X0038000000Y0048945000D03*
D10*
X0038000000Y0018000000D03*
D12*
X0011350000Y0008600000D03*
D12*
X0011350000Y0055400000D03*
D12*
X0034650000Y0008600000D03*
D12*
X0034650000Y0055400000D03*
D12*
X0004000000Y0004000000D03*
D12*
X0084000000Y0004000000D03*
D12*
X0004000000Y0056000000D03*
D12*
X0084000000Y0056000000D03*
M02*
